<svg width="24" height="24" viewBox="0 0 24 24" fill="none" xmlns="http://www.w3.org/2000/svg">
<path fill-rule="evenodd" clip-rule="evenodd" d="M4.40007 4.20004C3.95823 4.20004 3.59998 4.55829 3.59998 5.00013C3.59998 5.44197 3.95823 5.80009 4.40007 5.80009H5.83606L6.01043 6.72995L7.02573 13.9121C7.08145 14.3067 7.41923 14.6001 7.8178 14.6001H17.7716C18.1697 14.6001 18.5073 14.3073 18.5636 13.9132L19.5921 6.71319C19.6249 6.48363 19.5565 6.25112 19.4046 6.07595C19.2526 5.90064 19.032 5.80006 18.8002 5.80006H7.46398L7.28639 4.85264C7.21541 4.4743 6.88501 4.20001 6.50008 4.20001L4.40007 4.20004ZM8.51264 13.0002L7.72098 7.40027H17.8774L17.0775 13.0002H8.51264Z" fill="#100E3A"/>
<path d="M11.6001 17.0002C11.6001 17.8838 10.8837 18.6001 10.0001 18.6001C9.11642 18.6001 8.40002 17.8838 8.40002 17.0002C8.40002 16.1165 9.11642 15.4001 10.0001 15.4001C10.8837 15.4001 11.6001 16.1165 11.6001 17.0002V17.0002Z" fill="#100E3A"/>
<path d="M17.2 17.0002C17.2 17.8838 16.4836 18.6001 15.5999 18.6001C14.7163 18.6001 14 17.8838 14 17.0002C14 16.1165 14.7163 15.4001 15.5999 15.4001C16.4836 15.4001 17.2 16.1165 17.2 17.0002V17.0002Z" fill="#100E3A"/>
</svg>
